<?xml version="1.0" encoding="UTF-8"?>
<svg id="Layer_1" data-name="Layer 1" xmlns="http://www.w3.org/2000/svg" viewBox="0 0 495.25 64.75">
  <path d="m96.84,61.08l-1.75.29h-.13c-.13.03-.26.03-.38.07l-.46.06c-22.98,3.77-42.42,4.25-59.4,1.52-4.57-.76-11.29-2.01-17.04-4.48-6.79-2.92-10.65-6.86-11.47-11.77-2.05-11.98,15.7-21.58,21.55-24.73C43.29,13.64,62.41,7.59,86.2,3.56c23.79-4.03,43.84-4.64,61.26-1.81,11.35,1.85,26.68,5.5,28.5,16.25s-11.43,19.25-21.55,24.73c-15.14,8.18-33.63,14.1-56.58,18.15l-.45.06c-.13.03-.26.03-.38.06s-.12.08-.15.08Zm-1.98-.65h.06l1.79-.32h.03c.13-.03.26-.03.38-.06l.45-.07c22.82-3.99,41.23-9.91,56.29-18.04,22.98-12.43,21.52-20.94,21.07-23.73-1.88-11.3-21.29-14.45-27.66-15.45C129.98-.04,110.05.54,86.36,4.57c-23.69,4.03-42.69,10.02-58.14,18.36C5.24,35.37,6.7,43.88,7.16,46.67c1.91,11.29,21.34,14.41,27.7,15.45,16.88,2.73,36.21,2.24,59.11-1.52l.46-.06c.13-.03.26-.03.38-.06l.06-.03Z" fill="#002fa7"/>
  <path d="m95.15,56.5c-.45.07-.94.16-1.46.23-.98.16-2.08.32-3.28.52l-.13.03c-.52.06-1.07.16-1.65.22-.52.06-1.07.16-1.65.23h-.11c-.87.13-1.81.22-2.76.36h-.13l-1.2.13c-.32.03-.68.07-1,.13h-.05c-7.37.81-14.38,1.3-20.81,1.4-11.69.16-21.07-.91-27.82-3.18-6.45-2.18-10.58-5.49-12.17-9.84-.28-.74-.48-1.51-.62-2.29-.57-3.41.26-6.78,2.5-9.99,3.1-4.5,9.01-8.78,17.56-12.72,8-3.71,18.11-7.05,30.06-9.97,7.56-1.85,13.63-2.95,16.59-3.43s9.15-1.46,16.81-2.24c8.44-.85,20.78-1.62,31.71-.55,9.38.91,16.39,3.02,20.81,6.3,3.08,2.29,4.96,5.16,5.52,8.56.13.82.19,1.64.16,2.47-.13,4.64-2.89,9.09-8.18,13.21-5.63,4.37-14.13,8.49-25.27,12.2-6.17,2.04-12.96,3.9-20.2,5.55-.25.07-.51.13-.76.16l-2.5.54c-.65.13-1.27.26-1.91.38l-.61.13c-.36.06-.68.13-1.04.19s-.76.16-1.14.23l-.62.13c-1.2.23-2.31.42-3.28.62-.42.13-.89.22-1.36.29Zm-11.23.65h.16c.91-.1,1.81-.23,2.69-.36h.09c.56-.06,1.11-.16,1.66-.22s1.14-.16,1.65-.23l.13-.03c1.2-.2,2.29-.36,3.25-.49,1.04-.16,1.85-.29,2.89-.48.97-.16,2.08-.38,3.28-.62l.62-.13c.36-.06.74-.13,1.1-.22l1.01-.2.61-.13c.62-.13,1.23-.26,1.88-.38l2.5-.55c.26-.06.49-.1.76-.16,7.24-1.62,13.97-3.5,20.1-5.52,11.05-3.67,19.44-7.73,24.96-12.04,5.05-3.96,7.68-8.15,7.82-12.5.03-.77-.03-1.53-.16-2.29-.52-3.14-2.29-5.81-5.16-7.95-4.28-3.14-11.1-5.23-20.32-6.1-10.87-1.04-23.14-.29-31.52.55-7.66.76-13.79,1.71-16.75,2.21s-9.02,1.62-16.52,3.43c-11.71,2.85-22.08,6.26-29.9,9.91-8.37,3.88-14.14,8.03-17.17,12.38-2.08,2.98-2.85,6.13-2.34,9.28.12.73.31,1.45.57,2.14,1.52,4.09,5.42,7.21,11.62,9.29,6.66,2.24,15.91,3.28,27.49,3.11,6.43-.1,13.41-.55,20.74-1.39h.06c.34-.03.67-.07,1.01-.13l1.17-.16Z" fill="#002fa7"/>
  <path d="m57.21,46.99l-.1-.03h-.09l.09.91c.29-.03.55-.03.85-.06.76-.06,1.52-.07,2.29-.03-1.03-.2-2.05-.46-3.05-.78Zm10.61,1.56l.11-.02-.11.02Zm.38-.05h-.03v.05h.06m93.56-28.07c-.55-3.43-2.43-6.27-5.52-8.57-4.41-3.28-11.43-5.39-20.81-6.3-10.94-1.07-23.25-.29-31.7.55-7.66.76-13.83,1.71-16.81,2.24s-9.04,1.6-16.6,3.43c-11.94,2.92-22.07,6.27-30.06,9.97-8.54,3.93-14.42,8.22-17.56,12.7-2.24,3.21-3.08,6.59-2.5,10,.1.59.24,1.17.42,1.74.06.19.13.38.19.57.05.12.09.24.14.35,1.71,4.19,5.78,7.36,12.06,9.48,6.75,2.29,16.13,3.34,27.82,3.18h.19l.13-.16c1.68-1.78,3.5-3.63,5.31-5.2l.11-.1,1.01-.88h-1.55c-8.67.08-15.65-.69-20.77-2.36h-.05l.06-.02c4.49-1.8,8.2-2.8,11.63-3.19,2.98.86,6.06,1.37,9.17,1.49-2.11-.11-4.21-.36-6.29-.76l-1.1-.24-.45-.13c-.43-.11-.85-.24-1.25-.38l-.1-.02h-.03c-.59-.18-1.18-.4-1.75-.65-3.34.55-7.02,1.68-11.37,3.51l-1.06.45-.07.03,1.14.42c5.09,1.91,12.28,2.89,21.3,2.85-1.52,1.36-2.99,2.89-4.38,4.35-11.48.17-20.63-.9-27.23-3.11-5.98-2-9.81-4.96-11.43-8.85-.06-.14-.13-.29-.18-.44s-.12-.32-.17-.48c-.18-.54-.32-1.1-.42-1.66-.52-3.14.26-6.3,2.34-9.29,3-4.35,8.77-8.5,17.15-12.36,7.82-3.64,18.18-7.04,29.89-9.91,7.5-1.82,13.57-2.95,16.52-3.43s9.09-1.46,16.75-2.21c8.39-.86,20.64-1.59,31.52-.55,9.22.88,16.04,2.95,20.32,6.1,2.89,2.14,4.64,4.8,5.16,7.95.14.75.19,1.52.16,2.29-.13,4.35-2.76,8.53-7.82,12.49-5.48,4.28-13.83,8.34-24.78,11.98-1.82-.94-3.77-1.91-5.72-2.76,8.47-2.98,14.93-6.23,19.21-9.67l.94-.76h-.19l-1.04-.06c-6.04-.38-10.55-.06-14.15.97l-.1.03-.1.06c-2.54,1.72-5.26,3.16-8.12,4.27l-.46.16c-.88.36-1.82.72-2.76,1.04l-.59.2.02-.11c.03-.22.07-.45.1-.68.17-1.3.24-2.61.21-3.93,0-.21,0-.41-.03-.62-.03-.21-.02-.42-.04-.63s-.03-.42-.05-.64-.05-.42-.08-.64c-.04-.29-.08-.57-.13-.86s-.12-.57-.17-.85c-.03-.14-.06-.29-.09-.42-.5-2.21-1.31-4.34-2.42-6.32-.38-.68-.79-1.34-1.23-1.97-.13-.19-.27-.38-.41-.57s-.24-.33-.38-.49-.27-.34-.4-.51c-1.51-1.87-3.3-3.5-5.29-4.84-1.58-1.06-3.28-1.92-5.07-2.57-3.71-1.34-7.68-1.75-11.59-1.2-.38.04-.77.1-1.14.18h-.1c-3.87.77-7.49,2.47-10.55,4.96-1.41,1.12-2.68,2.41-3.77,3.84l-.09.13c-.74.97-1.41,1.98-2,3.05-.12.21-.23.43-.34.64s-.18.34-.26.52-.14.29-.21.44c-.32.71-.61,1.44-.86,2.18-.07.2-.13.38-.2.6s-.12.38-.18.6l-.13.46s0,.06,0,.09c0,.05-.03.1-.04.16-.04.13-.07.29-.1.41,0,.02,0,.03,0,.05v.04c-.03.11-.05.22-.07.33s-.04.2-.06.29c-.04.21-.08.42-.11.63-.08.47-.15.94-.21,1.41,0,.16-.03.32-.05.48s-.03.43-.05.65c-.06.96-.06,1.93,0,2.89.02.38.05.76.09,1.14,0,.08,0,.17.03.25.04.28.08.53.12.79,0,.05,0,.11.03.16,0,0,0,.02,0,.03,0,.04,0,.09.02.13,0,0,0,.02,0,.03,0,.05.01.1.02.16,0,.11.03.22.06.34.21,1.12.49,2.22.85,3.3.47,1.45,1.09,2.86,1.83,4.19h.02c.13.22.26.45.38.68l.14.23h-.16l-1.17.06h1.63l.86-.03-.45-.71c-.05-.08-.1-.15-.14-.24-.85-1.41-1.55-2.91-2.07-4.47-.39-1.14-.68-2.32-.88-3.51-.06-.42-.13-.81-.16-1.23-.02-.22-.05-.45-.06-.68-.18-1.97-.09-3.96.26-5.91.62-3.67,2.12-7.13,4.38-10.09.31-.38.64-.79.98-1.17.83-.95,1.74-1.83,2.72-2.63,2.94-2.38,6.41-4.01,10.12-4.75l.1-.02.49-.08.57-.1c3.75-.53,7.58-.13,11.14,1.17,7.35,2.66,12.84,8.89,14.54,16.52.06.38.16.76.22,1.2.19,1.07.3,2.16.33,3.24.03,1.7-.11,3.4-.45,5.07,0,.07-.02.14-.04.21l-.16.84.81-.26.33-.11,1.06-.38c.98-.32,1.89-.68,2.79-1.04l.45-.16c2.9-1.15,5.66-2.6,8.24-4.35,3.25-.91,7.34-1.23,12.53-1.01l-.04.03c-4.35,3.27-10.77,6.34-19.06,9.15l-1.27.42,1.22.48.1.04c2.36.96,4.67,2.05,6.91,3.26l.19.1h.13c11.14-3.71,19.64-7.83,25.26-12.2,5.31-4.12,8.07-8.56,8.19-13.2.03-.83-.02-1.65-.15-2.47Zm-93.61,28.02h-.03v.05h.06m-.28,0h-.11.11Zm-.05.96h.05l.56.02h.45c-.38,0-.76-.02-1.12-.04h-.44m-10.36-2.5l.09.91c.29-.03.55-.03.86-.06.76-.06,1.52-.07,2.29-.04-1.03-.19-2.05-.45-3.05-.76l-.1-.03-.09-.02Zm.19.03l-.1-.03h-.09l.09.91c.29-.03.55-.03.86-.06.76-.06,1.52-.07,2.29-.04-1.03-.21-2.05-.48-3.05-.8v.03Zm10.61,1.52l.11-.02-.11.02Zm.38-.05h-.03v.05h.06m-.03-.05h-.03v.05h.06m-.38,0l.11-.02-.11.02Zm-10.61-1.56l-.1-.03h-.09l.09.91c.29-.03.55-.03.85-.06.76-.06,1.52-.07,2.29-.03-1.03-.19-2.05-.45-3.05-.76v-.02Z" fill="#002fa7"/>
  <path d="m57.21,46.99l-.1-.03h-.09l.09.91c.29-.03.55-.03.85-.06.76-.06,1.52-.07,2.29-.03-1.03-.2-2.05-.46-3.05-.78Zm10.61,1.56l.11-.02-.11.02Zm.38-.05h-.03v.05h.06m93.56-28.07c-.55-3.43-2.43-6.27-5.52-8.57-4.41-3.28-11.43-5.39-20.81-6.3-10.94-1.07-23.25-.29-31.7.55-7.66.76-13.83,1.71-16.81,2.24s-9.04,1.6-16.6,3.43c-11.94,2.92-22.07,6.27-30.06,9.97-8.54,3.93-14.42,8.22-17.56,12.7-2.24,3.21-3.08,6.59-2.5,10,.1.59.24,1.17.42,1.74.06.19.13.38.19.57.05.12.09.24.14.35,1.71,4.19,5.78,7.36,12.06,9.48,6.75,2.29,16.13,3.34,27.82,3.18h.19l.13-.16c1.68-1.78,3.5-3.63,5.31-5.2l.11-.1,1.01-.88h-1.55c-8.67.08-15.65-.69-20.77-2.36h-.05l.06-.02c4.49-1.8,8.2-2.8,11.63-3.19,2.98.86,6.06,1.37,9.17,1.49-2.11-.11-4.21-.36-6.29-.76l-1.1-.24-.45-.13c-.43-.11-.85-.24-1.25-.38l-.1-.02h-.03c-.59-.18-1.18-.4-1.75-.65-3.34.55-7.02,1.68-11.37,3.51l-1.06.45-.07.03,1.14.42c5.09,1.91,12.28,2.89,21.3,2.85-1.52,1.36-2.99,2.89-4.38,4.35-11.48.17-20.63-.9-27.23-3.11-5.98-2-9.81-4.96-11.43-8.85-.06-.14-.13-.29-.18-.44s-.12-.32-.17-.48c-.18-.54-.32-1.1-.42-1.66-.52-3.14.26-6.3,2.34-9.29,3-4.35,8.77-8.5,17.15-12.36,7.82-3.64,18.18-7.04,29.89-9.91,7.5-1.82,13.57-2.95,16.52-3.43s9.09-1.46,16.75-2.21c8.39-.86,20.64-1.59,31.52-.55,9.22.88,16.04,2.95,20.32,6.1,2.89,2.14,4.64,4.8,5.16,7.95.14.75.19,1.52.16,2.29-.13,4.35-2.76,8.53-7.82,12.49-5.48,4.28-13.83,8.34-24.78,11.98-1.82-.94-3.77-1.91-5.72-2.76,8.47-2.98,14.93-6.23,19.21-9.67l.94-.76h-.19l-1.04-.06c-6.04-.38-10.55-.06-14.15.97l-.1.03-.1.06c-2.54,1.72-5.26,3.16-8.12,4.27l-.46.16c-.88.36-1.82.72-2.76,1.04l-.59.2.02-.11c.03-.22.07-.45.1-.68.17-1.3.24-2.61.21-3.93,0-.21,0-.41-.03-.62-.03-.21-.02-.42-.04-.63s-.03-.42-.05-.64-.05-.42-.08-.64c-.04-.29-.08-.57-.13-.86s-.12-.57-.17-.85c-.03-.14-.06-.29-.09-.42-.5-2.21-1.31-4.34-2.42-6.32-.38-.68-.79-1.34-1.23-1.97-.13-.19-.27-.38-.41-.57s-.24-.33-.38-.49-.27-.34-.4-.51c-1.51-1.87-3.3-3.5-5.29-4.84-1.58-1.06-3.28-1.92-5.07-2.57-3.71-1.34-7.68-1.75-11.59-1.2-.38.04-.77.1-1.14.18h-.1c-3.87.77-7.49,2.47-10.55,4.96-1.41,1.12-2.68,2.41-3.77,3.84l-.09.13c-.74.97-1.41,1.98-2,3.05-.12.21-.23.43-.34.64s-.18.34-.26.52-.14.29-.21.44c-.32.71-.61,1.44-.86,2.18-.07.2-.13.38-.2.6s-.12.38-.18.6l-.13.46s0,.06,0,.09c0,.05-.03.1-.04.16-.04.13-.07.29-.1.41,0,.02,0,.03,0,.05v.04c-.03.11-.05.22-.07.33s-.04.2-.06.29c-.04.21-.08.42-.11.63-.08.47-.15.94-.21,1.41,0,.16-.03.32-.05.48s-.03.43-.05.65c-.06.96-.06,1.93,0,2.89.02.38.05.76.09,1.14,0,.08,0,.17.03.25.04.28.08.53.12.79,0,.05,0,.11.03.16,0,0,0,.02,0,.03,0,.04,0,.09.02.13,0,0,0,.02,0,.03,0,.05.01.1.02.16,0,.11.03.22.06.34.21,1.12.49,2.22.85,3.3.47,1.45,1.09,2.86,1.83,4.19h.02c.13.22.26.45.38.68l.14.23h-.16l-1.17.06h1.63l.86-.03-.45-.71c-.05-.08-.1-.15-.14-.24-.85-1.41-1.55-2.91-2.07-4.47-.39-1.14-.68-2.32-.88-3.51-.06-.42-.13-.81-.16-1.23-.02-.22-.05-.45-.06-.68-.18-1.97-.09-3.96.26-5.91.62-3.67,2.12-7.13,4.38-10.09.31-.38.64-.79.98-1.17.83-.95,1.74-1.83,2.72-2.63,2.94-2.38,6.41-4.01,10.12-4.75l.1-.02.49-.08.57-.1c3.75-.53,7.58-.13,11.14,1.17,7.35,2.66,12.84,8.89,14.54,16.52.06.38.16.76.22,1.2.19,1.07.3,2.16.33,3.24.03,1.7-.11,3.4-.45,5.07,0,.07-.02.14-.04.21l-.16.84.81-.26.33-.11,1.06-.38c.98-.32,1.89-.68,2.79-1.04l.45-.16c2.9-1.15,5.66-2.6,8.24-4.35,3.25-.91,7.34-1.23,12.53-1.01l-.04.03c-4.35,3.27-10.77,6.34-19.06,9.15l-1.27.42,1.22.48.1.04c2.36.96,4.67,2.05,6.91,3.26l.19.1h.13c11.14-3.71,19.64-7.83,25.26-12.2,5.31-4.12,8.07-8.56,8.19-13.2.03-.83-.02-1.65-.15-2.47Zm-93.61,28.02h-.03v.05h.06m-.28,0h-.11.11Zm-.05.96h.05l.56.02h.45c-.38,0-.76-.02-1.12-.04h-.44m-10.36-2.5l.09.91c.29-.03.55-.03.86-.06.76-.06,1.52-.07,2.29-.04-1.03-.19-2.05-.45-3.05-.76l-.1-.03-.09-.02Zm.19.03l-.1-.03h-.09l.09.91c.29-.03.55-.03.86-.06.76-.06,1.52-.07,2.29-.04-1.03-.21-2.05-.48-3.05-.8v.03Zm10.61,1.52l.11-.02-.11.02Zm0,0l.11-.02-.11.02Zm-10.61-1.56l-.1-.03h-.09l.09.91c.29-.03.55-.03.85-.06.76-.06,1.52-.07,2.29-.03-1.03-.19-2.05-.45-3.05-.76v-.02Z" fill="#002fa7"/>
  <path d="m67.89,48.46l-.17.03h-.03c-.59,0-1.19-.05-1.75-.08-.73-.05-1.43-.1-2.12-.17-1.14-.11-2.21-.26-3.2-.45-1.17-.21-2.33-.5-3.46-.86l-.1-.03h-.1c-.62.07-1.26.16-1.91.29-3.29.57-6.89,1.67-11.14,3.43-4.4-1.66-7.17-4.08-8.24-7.17-.06-.17-.11-.34-.16-.52s-.08-.3-.11-.45-.08-.4-.11-.59c-.46-2.67.26-5.29,2.11-7.79l.13-.16c2.51-3.32,7.06-6.51,13.55-9.46,3.51-1.57,7.11-2.95,10.78-4.11,4-1.3,8.39-2.53,13.05-3.65,2.07-.5,3.97-.93,5.69-1.28.08-.02.17-.03.26-.05-1.5.76-2.92,1.69-4.22,2.76-1.43,1.14-2.71,2.44-3.81,3.89l-.05.09c-.31.4-.61.82-.88,1.24-1.17,1.73-2.1,3.61-2.77,5.58-.07.2-.13.38-.2.6s-.12.38-.18.6c-.03.09-.05.18-.07.27-.01.07-.03.13-.06.19v.09s-.03.1-.04.16c-.04.13-.07.29-.1.41,0,.02,0,.03,0,.05v.04c-.03.11-.05.22-.07.33s-.04.2-.06.29c0,.04-.01.07-.02.1-.03.17-.06.33-.09.5-.09.48-.15.96-.21,1.44,0,.16-.03.32-.05.48,0,.22-.03.43-.05.65-.06.96-.06,1.93,0,2.89.02.38.05.76.1,1.14,0,.08,0,.15.02.22.04.29.08.55.12.82,0,.03,0,.06,0,.09l.06.38c.05.29.1.57.16.86,0,.03,0,.06,0,.08.03.16.07.32.11.47.14.62.31,1.2.48,1.76.05.15.1.29.14.45l.19.53c.06.18.13.36.2.54.14.35.29.71.44,1.06.07.15.13.28.21.44s.14.29.21.43c.19.38.41.8.63,1.18.13.22.26.45.38.68l.14.23h-.16l-1.17.05h1.68l.84-.03-.42-.71c-.05-.08-.1-.16-.14-.24-.87-1.4-1.58-2.89-2.12-4.45-.38-1.14-.67-2.32-.86-3.51-.06-.42-.13-.81-.16-1.23-.03-.25-.06-.49-.08-.74-.16-1.95-.07-3.92.29-5.85.62-3.66,2.13-7.12,4.39-10.06.24-.31.49-.61.76-.91,3.37-3.95,7.98-6.64,13.09-7.62h0s-.16-.91-.16-.91v-.02l-1.69.3c-2.5.46-6.31,1.21-10.85,2.29-9.51,2.29-17.56,4.91-23.99,7.83-6.51,2.97-11.18,6.19-13.81,9.59l-.13.16c-2.11,2.79-2.92,5.72-2.4,8.7.03.2.08.38.12.57s.09.38.14.55.08.29.13.41c1.06,3.22,3.71,5.75,7.9,7.54l.07.03c.34.14.69.29,1.06.42l.19.06.16-.06,1.14-.48.06-.02c4.46-1.79,8.15-2.81,11.59-3.2h.05c.41.13.84.25,1.28.38-.43-.11-.86-.24-1.25-.38l-.1-.02h-.03c-.6-.18-1.18-.4-1.75-.65.63-.11,1.24-.19,1.84-.26l.09.91c.29-.03.55-.03.86-.06.76-.06,1.52-.07,2.29-.04,1.33.26,2.68.45,4.03.57.57.05,1.14.1,1.74.13s1.17.06,1.78.08h.03l.11-.02h.22v.05h.41c.53,0,1.06.03,1.56.03h.82s-.01-.02-.02-.03h-.86c-.5,0-1.02-.02-1.54-.03h-.37m-.21,1.01l.54.02h.47c-.38,0-.76-.02-1.12-.04h-.38m.44-1.01l.06.02m2.96.07h-.86c-.5,0-1.01-.02-1.52-.03h-.21l-.09-.02h-.06v.03h.4c.53,0,1.06.03,1.56.03h.81v-.03l-.02.02Z" fill="#002fa7"/>
  <path d="m114.14,42.22l.16-.86c.36-1.74.52-3.51.48-5.29-.03-1.08-.14-2.16-.32-3.23-.06-.42-.16-.81-.22-1.2-1.29-5.78-4.77-10.83-9.71-14.1-1.51-1-3.13-1.82-4.84-2.43-3.56-1.3-7.39-1.7-11.14-1.17l-.18-.93c2.21-.36,6.82-1.07,12.66-1.62,6.59-.65,16.26-1.23,24.96-.46h.06c7.27.65,12.79,2.18,16.45,4.55l.16.1c2.89,1.91,4.61,4.35,5.1,7.31.07.43.12.86.13,1.3.13,3.73-1.88,7.37-6,10.74l-.16.13h-.19c-5.77-.36-10.29-.06-13.79.94-2.58,1.74-5.35,3.2-8.24,4.35l-.45.16c-.91.35-1.82.71-2.79,1.04-.45.16-.91.32-1.4.49l-.73.19Zm-19-29.26c1.65.23,3.28.64,4.85,1.2,1.79.65,3.49,1.51,5.07,2.57,3.21,2.14,5.85,5.01,7.72,8.39,1.1,1.98,1.91,4.11,2.4,6.32.1.42.16.86.26,1.27.19,1.12.3,2.25.33,3.38.04,1.58-.07,3.15-.33,4.71l.59-.19c.94-.32,1.88-.68,2.76-1.04l.45-.16c2.86-1.13,5.58-2.58,8.11-4.33l.1-.06.1-.03c3.57-1.04,8-1.33,13.96-.98,3.77-3.14,5.62-6.48,5.48-9.83-.01-.4-.05-.8-.13-1.2-.45-2.63-1.98-4.84-4.54-6.59l-.13-.1c-3.51-2.29-8.93-3.81-16.1-4.48h-.06c-8.63-.76-18.28-.19-24.86.46-2.21.24-4.22.47-6.01.71Z" fill="#002fa7"/>
  <path d="m68.21,48.52v.03h.1l-.1-.03Zm2.71.03h-.86c-.5,0-1.02-.02-1.54-.03l.05.03c.53,0,1.06.03,1.56.03h.82s-.01-.02-.02-.03h0Zm-2.96-.07l-.21.03c-.6,0-1.18-.05-1.75-.08-.66-.03-1.28-.08-1.91-.14-1.24-.11-2.47-.29-3.7-.52-1.09-.2-2.17-.47-3.22-.81l-.1-.03h-.03l-.07-.02c-3.38-1.14-5.68-2.84-6.84-5.11-.11-.22-.21-.44-.3-.67-.05-.11-.09-.23-.13-.35-.14-.4-.25-.82-.32-1.24-.29-1.56.23-3.14,1.52-4.77,1.12-1.34,2.43-2.51,3.88-3.48,1.94-1.33,3.98-2.5,6.1-3.51,3.54-1.7,7.19-3.17,10.92-4.42l.07-.03c-.4.59-.77,1.2-1.11,1.83-.12.21-.23.43-.34.64s-.17.34-.26.51-.14.29-.21.44c-.32.71-.61,1.44-.86,2.18-.07.2-.13.38-.2.6s-.12.38-.18.6-.09.31-.13.47c0,.03,0,.06-.02.09,0,.05-.03.1-.04.15-.04.14-.07.29-.1.42,0,.02,0,.03,0,.05v.04c-.03.11-.05.22-.07.33s-.06.27-.08.38-.07.33-.1.5c-.08.48-.15.96-.21,1.44,0,.16-.03.32-.05.48s-.03.43-.05.64c-.06.96-.06,1.93,0,2.89.02.38.05.76.09,1.14,0,.08,0,.15.02.22.04.29.08.55.12.82,0,.03,0,.06,0,.09l.06.38c.05.29.1.57.16.86,0,.03,0,.06,0,.08.04.16.07.32.11.47.15.62.31,1.2.48,1.76.05.15.1.29.14.45l.19.53c.06.18.13.36.2.54.14.35.29.71.44,1.06.06.15.13.29.2.45s.14.29.22.43c.19.38.4.79.63,1.18.13.22.26.45.38.67l.14.23h-.16l-1.17.05h1.68l.84-.03-.38-.67c-.06-.09-.11-.19-.16-.29-.84-1.4-1.53-2.89-2.04-4.44-.39-1.14-.68-2.31-.88-3.5-.06-.42-.13-.81-.16-1.23-.26-2.19-.19-4.41.19-6.59.63-3.66,2.15-7.12,4.42-10.06l.76-.9.22-.29-.09.03-1.4.45-.23.08h-.03s-.06,0-.08.03c-2.29.76-4.43,1.54-6.43,2.32-2.09.82-4.02,1.67-5.8,2.53-4.93,2.37-8.44,4.81-10.35,7.24-1.46,1.85-2.05,3.73-1.72,5.55.08.36.17.72.29,1.07.07.24.16.48.25.71.04.1.08.19.13.29,1.02,2.31,3.01,4.12,5.96,5.4h.05l.08.03c.63-.11,1.24-.19,1.84-.26l.09.91c.29-.03.55-.03.85-.06.76-.06,1.52-.07,2.29-.04,1.33.26,2.68.45,4.03.57.57.06,1.14.1,1.75.13s1.17.06,1.77.08h.03l.11-.02h.21m2.79.09s-.01-.02-.02-.03h-.86c-.5,0-1.02-.02-1.52-.03l.05.03c.53,0,1.06.03,1.56.03h.8Zm-2.73-.05l.09-.02h-.09v.02Zm-.29.96l.54.02h.44c-.38,0-.76-.02-1.12-.04h-.43m3.47-.9h-.86c-.5,0-1.02-.02-1.54-.03h-.38v.03h.45c.53,0,1.06.03,1.56.03h.82s-.01-.03-.01-.05l-.03.02Z" fill="#002fa7"/>
  <path d="m114.14,42.22l.16-.86c.36-1.74.52-3.51.48-5.29-.03-1.08-.14-2.16-.32-3.23-.06-.42-.16-.81-.22-1.2-1.29-5.78-4.77-10.83-9.71-14.1l-1.3-.88,1.56-.03c4.41-.07,8.82.12,13.21.57,5.45.65,9.53,1.75,12.2,3.38,2.08,1.23,3.28,2.79,3.57,4.61.09.62.13,1.25.1,1.88-.16,3.14-2.18,6.1-5.97,8.8l-.1.06c-2.14,1.52-4.93,2.96-8.21,4.32l-.45.16c-.91.35-1.82.71-2.79,1.04-.45.16-.91.33-1.4.49l-.8.28Zm-7.85-24.63c2.66,2.02,4.86,4.58,6.48,7.5,1.11,1.98,1.92,4.12,2.41,6.33.1.42.16.86.26,1.27.19,1.12.3,2.25.33,3.38.04,1.58-.07,3.15-.33,4.71l.59-.19c.94-.32,1.88-.68,2.76-1.04l.45-.16c2.86-1.12,5.58-2.57,8.11-4.3l.1-.06c3.48-2.5,5.34-5.2,5.45-8,.03-.55,0-1.11-.1-1.66-.26-1.52-1.3-2.8-3.11-3.92-2.53-1.52-6.48-2.6-11.82-3.24-3.85-.41-7.72-.61-11.59-.59Z" fill="#002fa7"/>
  <path d="m70.92,48.55h-.86c-.5,0-1.02-.02-1.54-.03l.05.03c.53,0,1.06.03,1.56.03h.82s-.01-.02-.02-.03Zm1.73.9l-.38-.67c-.06-.09-.12-.19-.16-.29-.84-1.4-1.53-2.88-2.04-4.43-.39-1.14-.68-2.32-.88-3.51-.06-.42-.13-.81-.16-1.23l-.08-.78-.09.06-.55.36-.35.23h-.02c-.83.56-1.61,1.2-2.33,1.91-1.21,1.21-1.8,2.42-1.76,3.57v.16c0,.28.05.55.13.81.02.09.05.18.08.26.21.59.53,1.13.94,1.59.29.33.61.62.95.88l.05.03s.03.02.04.03c.57.03,1.16.06,1.77.08h.03l-.07-.03-.06-.03-.06-.03-.13-.1h-.03l-.28-.17c-.69-.38-1.28-.9-1.76-1.52-.27-.36-.46-.77-.57-1.21,0-.08-.03-.18-.04-.29s-.04-.25-.06-.38c-.1-.91.42-1.91,1.46-2.99.57-.58,1.19-1.11,1.86-1.57v.37s.01.08.02.13c.05.29.1.57.16.86,0,.03,0,.06,0,.08.04.16.07.32.11.47.15.62.31,1.2.48,1.76.05.15.1.29.14.45l.19.54c.06.18.13.35.2.53.14.35.29.71.44,1.06.07.15.13.28.2.44s.14.29.22.43c.19.38.4.8.63,1.18.13.22.26.45.38.68l.14.23h-.16l-1.17.05h1.68l.84-.03.05.02Zm-1.71-.86s-.01-.02-.02-.03h-.86c-.5,0-1.02-.02-1.54-.03l.05.03c.53,0,1.06.03,1.56.03h.82Zm-.02-.03h-.86c-.5,0-1.02-.02-1.54-.03h-.22l-.09.02h.35c.53,0,1.06.03,1.56.03h.81s0-.02,0-.03h-.01Z" fill="#002fa7"/>
  <path d="m114.14,42.22l.16-.86c.36-1.74.52-3.51.48-5.29-.03-1.08-.14-2.16-.32-3.23-.06-.42-.16-.81-.22-1.2l-.16-.77.78.19c1.05.25,2.07.6,3.05,1.04,1.75.81,2.79,1.85,3.08,3.05.03.16.06.33.1.52.23,1.59-.35,3.14-1.78,4.64l-.06.06-.1.03c-.91.36-1.81.72-2.79,1.04-.45.16-.91.32-1.4.48l-.81.27Zm1.2-10.03l.1.48c.19,1.12.3,2.25.33,3.38.04,1.58-.07,3.15-.33,4.71l.59-.19c.91-.32,1.78-.65,2.67-1.01,1.14-1.27,1.63-2.53,1.46-3.77-.03-.13-.03-.26-.06-.42-.23-.91-1.11-1.71-2.57-2.4-.7-.32-1.43-.58-2.18-.78Z" fill="#002fa7"/>
  <path d="m134.37,51.31c-1.46-.62-3.22-1.52-5.07-2.47l-1.07-.55.45-.86,1.07.55c1.85.94,3.57,1.85,5,2.44l-.39.89Z" fill="#002fa7"/>
  <path d="m119.7,40.18l-.62-.76c2.4-1.96,5.16-3.43,8.11-4.35.1-.03.19-.06.28-.1l.23.94c-.06.03-.16.03-.23.06-2.84.89-5.48,2.32-7.78,4.2Z" fill="#002fa7"/>
  <path d="m163.23,37.22c-2.86-.16-6.1-.55-9.71-1.04l-.29-.03c-3.81-.45-7.73-.94-11.59-1.2l.05-.97c3.9.23,7.82.72,11.65,1.2l.29.03c3.6.45,6.82.86,9.67,1.01l-.08,1Z" fill="#002fa7"/>
  <path d="m116.55,41.31l-.76-.57c1.65-2.14,3.08-3.81,4.44-5.34,4.15-4.51,8.25-7.3,12.89-8.79l.1-.03c4.63-1.41,9.38-2.39,14.19-2.92,4.71-.57,9.51-.94,14.1-1.26l.49-.03c4.71-.34,9.11-.66,13.34-1.22l.13.98c-4.25.55-8.7.88-13.41,1.2l-.49.03c-4.61.33-9.38.68-14.1,1.27-5.52.68-10.13,1.63-14.02,2.89l-.1.03c-4.43,1.43-8.37,4.17-12.45,8.55-1.3,1.43-2.69,3.11-4.35,5.23h0Z" fill="#002fa7"/>
  <path d="m115.67,36.34l-.82-.51c.88-1.36,1.66-2.53,2.4-3.57,3.91-5.43,7.76-9.09,12.24-11.56l.06-.03c.06-.03.11-.06.16-.1,3.41-1.88,7.53-3.54,12.53-5.14h.03c4.25-1.33,8.5-2.4,13.6-3.67l.29-.06c4.19-1.04,8.15-2,11.91-3.14l.29.91c-3.76,1.14-7.76,2.14-11.95,3.18l-.29.06c-5.08,1.28-9.33,2.34-13.58,3.67h-.04c-4.93,1.56-8.99,3.21-12.37,5.07-.06.03-.1.06-.13.06l-.06.03c-4.32,2.41-8.12,5.97-11.92,11.3-.71,1.01-1.49,2.18-2.36,3.51h0Z" fill="#002fa7"/>
  <path d="m112.78,25.54l-.84-.49c1.43-2.58,3.17-4.99,5.16-7.17.16-.16.32-.36.49-.52,2.47-2.45,5.21-4.61,8.18-6.43l.1-.06c2.96-1.89,6.14-3.57,9.38-5.29l.49-.26c2.63-1.4,5.14-2.69,7.42-4.03l.5.85c-2.34,1.36-4.84,2.67-7.47,4.06l-.48.26c-3.28,1.71-6.46,3.4-9.42,5.29l-.1.06c-2.89,1.75-5.55,3.84-7.94,6.22l-.48.48c-1.89,2.17-3.56,4.52-4.98,7.02Z" fill="#002fa7"/>
  <path d="m100.28,14.79l-.91-.36c.36-.88.78-1.75,1.3-2.85.88-1.78,1.85-3.57,2.76-5.23l.32-.55c.82-1.49,1.69-3.02,2.44-4.51l.87.43c-.76,1.49-1.63,3.05-2.44,4.55l-.32.55c-.91,1.65-1.88,3.41-2.76,5.2-.51,1.06-.93,1.94-1.25,2.78Z" fill="#002fa7"/>
  <path d="m76.58,18.82c-.65-.76-1.36-1.46-2.14-2.24-1.33-1.33-2.73-2.57-4.28-3.96l-.43-.38c-1.36-1.23-2.67-2.37-3.9-3.57l.69-.66c1.2,1.17,2.5,2.34,3.86,3.54l.42.36c1.56,1.4,2.95,2.67,4.32,3.99.76.76,1.49,1.52,2.17,2.29l-.72.63Z" fill="#002fa7"/>
  <path d="m127.77,35.89c-2.58,1.75-5.35,3.2-8.24,4.35l-.45.16c-.91.35-1.82.71-2.79,1.04l-1.06.38-.33.11-.81.26.16-.84c.02-.07.03-.14.04-.21-1,.33-2.08.66-3.25,1.03-2.08.61-4.32,1.2-6.78,1.78s-5.03,1.14-7.69,1.62c-1.2.23-2.27.42-3.21.57-.91.13-2.01.33-3.25.52-2.79.46-5.29.81-7.66,1.07-2.53.29-4.94.52-7.21.65-1.04.06-2.1.09-3.12.11h-.11c.05.08.1.16.14.24l.45.71h.06c.61,0,1.21-.04,1.8-.07l.9-.05c2.29-.13,4.71-.36,7.24-.65,2.37-.26,4.87-.62,7.69-1.07.52-.06,1.02-.14,1.5-.22l.82-.14.29-.05.64-.11c.94-.16,2.04-.36,3.24-.59,2.6-.47,5.19-1.01,7.76-1.62,1.1-.25,2.15-.52,3.16-.79h.06c1.26-.34,2.47-.68,3.63-1.02,1.26-.35,2.44-.74,3.54-1.1.1-.03.19-.06.29-.1.38-.13.74-.26,1.11-.38.98-.32,1.88-.68,2.79-1.04l.46-.16c2.9-1.15,5.66-2.6,8.24-4.35,3.23-.91,7.3-1.23,12.46-1.01l.04-.03c-5.17-.24-9.28.09-12.52,1h0Zm-59.82,12.58l-.21.03c-.6,0-1.18-.05-1.75-.08-.66-.03-1.28-.08-1.91-.14-1.24-.11-2.47-.29-3.7-.52-1.09-.2-2.17-.47-3.22-.81l-.1-.03h-.1c-.61.07-1.22.15-1.85.26-3.34.56-7.01,1.67-11.35,3.5l-1.06.45-.07.03.07.03,1.05.38c5.36,2,12.96,2.98,22.59,2.85h.18c2.81-.04,5.83-.16,8.94-.38l.55-.03c.19-.03.42-.03.65-.06l.26-.03c1.3-.1,2.57-.19,3.81-.32.76-.06,1.46-.16,2.14-.22l1.4-.16c.62-.06,1.23-.16,1.82-.23l.16-.03c1.95-.23,3.83-.49,5.65-.78.97-.13,1.79-.26,2.47-.38s1.52-.26,2.34-.46c1.91-.35,3.81-.76,5.68-1.17.65-.13,1.3-.26,1.98-.42l1.33-.32c.62-.16,1.23-.29,1.88-.45,1.17-.26,2.37-.59,3.6-.91l.76-.19c.29-.06.55-.16.84-.23l.1-.03c2.94-.83,5.78-1.69,8.44-2.58l.12-.04h.03c9.1-3.09,15.96-6.48,20.41-10.14l.88-.72.06-.06-1.23-.06c-6.03-.38-10.55-.06-14.15.98l-.1.03-.1.06c-2.54,1.73-5.26,3.17-8.12,4.28l-.45.16c-.88.35-1.81.71-2.76,1.04l-.44.16-.91.32-.26.09c-1,.33-2.08.66-3.25,1.03-2.08.61-4.32,1.2-6.78,1.78s-5.03,1.14-7.69,1.62c-1.2.23-2.27.42-3.21.57-.91.13-2.01.33-3.25.52-2.79.46-5.29.81-7.66,1.07-2.53.29-4.94.52-7.21.65-1.04.06-2.1.09-3.12.11h-.38c-.26,0-.52.02-.76.03h-.87c-.5,0-1.01-.02-1.52-.03h-.38v.07h.32c.53,0,1.05.03,1.56.03h.81l-.02-.03h.02c.13.23.26.45.38.68l.14.23h1.19c.61-.02,1.21-.05,1.8-.07l.9-.05c2.29-.13,4.7-.35,7.24-.65,2.37-.26,4.88-.6,7.7-1.06.52-.06,1.02-.14,1.49-.22l.82-.14.29-.05.64-.11c.95-.16,2.05-.36,3.25-.59,2.6-.47,5.19-1.01,7.76-1.62,1.1-.25,2.15-.52,3.16-.79h.05c1.27-.33,2.47-.67,3.63-1.01,1.27-.36,2.44-.76,3.54-1.11.1-.03.19-.06.28-.1.38-.13.76-.25,1.11-.38.98-.32,1.88-.68,2.79-1.04l.46-.16c2.9-1.15,5.66-2.6,8.24-4.35,3.23-.91,7.3-1.23,12.46-1.01h.07c-4.35,3.28-10.74,6.33-19.06,9.15h-.03l-1.28.43c-2.31.76-4.74,1.48-7.24,2.17l-.1.03c-.29.07-.55.16-.86.23l-.91.23c-1.17.32-2.34.61-3.43.88-.65.16-1.26.29-1.88.45l-1.33.32c-.68.13-1.33.29-1.98.42-1.88.38-3.77.78-5.65,1.14-.91.16-1.71.29-2.44.42s-1.49.26-2.43.38c-1.81.27-3.71.56-5.62.79l-.16.03c-.57.1-1.2.16-1.82.23l-1.4.16c-.68.1-1.4.16-2.11.23-1.23.1-2.5.23-3.77.32l-.22.03c-.23.03-.42.03-.65.06l-.56.03c-2.81.2-5.53.33-8.1.38l-.99.02h-.22c-8.65.08-15.63-.69-20.74-2.35h-.07c4.48-1.8,8.16-2.81,11.65-3.2h-.03c-.59-.18-1.18-.4-1.75-.65.63-.11,1.24-.19,1.84-.26l.09.91c.29-.03.55-.03.86-.06.76-.06,1.52-.07,2.29-.04,1.33.26,2.68.45,4.03.57.57.05,1.14.1,1.75.13s1.17.06,1.77.08h0l.11-.02h.22" fill="#002fa7"/>
  <path d="m68.34,33c-2.17-1.88-4.54-3.51-7.08-4.86l-.76-.38c-3.1-1.45-6.36-2.54-9.71-3.25-3.31-.76-6.78-1.3-10.33-1.85l-.57-.1c-2.98-.46-5.76-.88-8.46-1.4l.2-.94c2.69.52,5.48.94,8.39,1.4l.57.1c3.57.55,7.04,1.07,10.39,1.85,3.42.73,6.74,1.84,9.91,3.31l.78.38c2.61,1.37,5.05,3.05,7.27,5l-.61.74Z" fill="#002fa7"/>
  <path d="m69.25,44.55c-1.3-1.01-2.5-1.91-3.67-2.73-5.29-3.7-9.98-5.91-14.83-6.88l-.32-.06c-3.71-.71-8-.97-13.25-.76h-.03c-4.71.16-9.61.65-13.93,1.07h-.1c-4.47.44-8.69.86-12.62,1.03l-.03-.97c3.9-.16,8.12-.57,12.58-1.04h.1c4.31-.43,9.21-.92,13.95-1.08h.03c5.29-.2,9.71.06,13.47.81l.33.06c4.96,1.01,9.8,3.25,15.19,7.04,1.17.86,2.4,1.72,3.71,2.76l-.57.75Z" fill="#002fa7"/>
  <path d="m70.42,48.58h-.29c-.5,0-1.03-.02-1.56-.03l-.05-.03c-1.12-.71-2.13-1.31-3.1-1.84-.43-.24-.86-.47-1.27-.69l-.11-.06c-5.01-2.67-9.45-3.97-13.93-4.14h-1.04c-3.81,0-8.21.56-13.42,1.65l-.49.1-.38.09c-4.39.94-8.81,2.16-12.78,3.27l-.53.14-.48.13c-4.61,1.3-8.96,2.5-13.02,3.34l-.22-.96c3.99-.84,8.33-2.03,12.89-3.32l.06-.02.48-.13.45-.13c3.98-1.1,8.45-2.33,12.85-3.32l.43-.1.45-.09c5.16-1.11,9.53-1.66,13.34-1.69h.96c4.62.1,9.15,1.35,14.15,3.92l.76.38.22.12c1.65.88,3.45,1.97,5.58,3.35l.04.05Z" fill="#002fa7"/>
  <path d="m68.05,48.51h-.13l-.11.02h-.02c-.6-.02-1.19-.05-1.78-.08s-1.18-.08-1.74-.13l-.19-.05c-.09-.02-.17-.04-.26-.06-1.05-.24-2.12-.39-3.2-.45h-.37c-.76-.03-1.53-.02-2.29.04-.29.03-.55.03-.86.06l-.09-.91v-.07c.29-.04.58-.06.88-.06,2.39-.16,4.78.07,7.09.69.72.19,1.45.41,2.2.67l.28.1h.07l.1.06.27.1.06.02s.06.02.09.02h0Z" fill="#002fa7"/>
  <path d="m24.56,60.72l-.36-.88c2.79-1.17,5.72-2.6,8.8-4.12l.23-.1c3.43-1.68,6.98-3.43,10.55-4.93l.36.88c-3.54,1.49-7.08,3.21-10.49,4.9l-.22.13c-3.12,1.53-6.02,2.96-8.86,4.13Z" fill="#002fa7"/>
  <path d="m95.15,56.5c-.45.07-.94.16-1.46.23-.98.16-2.08.32-3.28.52l-.29.03-1.49.19c-.52.06-1.07.16-1.65.22h-.12c-.87.13-1.81.23-2.76.38h-.1l-1.2.13c-7.27.87-14.58,1.36-21.9,1.49l-1.14.03.76-.85c1.74-1.88,3.57-3.67,5.48-5.36l.13-.13h.16c3.21-.03,6.69-.19,10.29-.49l.26-.03c1.3-.1,2.57-.23,3.77-.32.76-.07,1.49-.16,2.21-.23l1.3-.16c.62-.07,1.2-.13,1.75-.23l.2-.03c1.95-.23,3.81-.52,5.61-.78.94-.13,1.75-.26,2.44-.38.71-.13,1.52-.26,2.43-.42,1.88-.35,3.77-.76,5.65-1.14.65-.13,1.3-.29,1.98-.42l1.46-.36c.58-.13,1.17-.26,1.75-.42,1.1-.26,2.24-.55,3.4-.88l.91-.22c3.31-.91,6.48-1.85,9.45-2.85l.2-.03.13.03c2.43.99,4.8,2.11,7.11,3.34l1.04.52-1.09.38c-7.01,2.29-14.14,4.23-21.34,5.81l-1.94.42c-.72.16-1.4.29-2.05.42l-.62.13-1.04.19c-.36.06-.76.16-1.11.23l-.61.13c-1.2.23-2.29.42-3.28.62-.46.15-.93.25-1.4.3h0Zm-11.23.65h.13c.91-.1,1.82-.23,2.69-.36h.12c.55-.06,1.11-.16,1.62-.22s1.04-.13,1.49-.2l.26-.03c1.2-.19,2.29-.36,3.25-.49.48-.1.97-.18,1.46-.23.46-.06.94-.16,1.43-.26.97-.16,2.07-.38,3.28-.62l.61-.13c.36-.06.72-.13,1.11-.23l1.01-.19.62-.13c.65-.13,1.33-.29,2.04-.42l1.91-.42c7.24-1.62,14.03-3.43,20.16-5.42-1.88-.98-3.86-1.91-5.81-2.69-2.92.98-6.07,1.95-9.35,2.82l-.76.19c-1.23.33-2.43.65-3.6.91-.58.13-1.17.28-1.75.42l-1.49.36c-.68.16-1.33.29-1.98.42-1.88.42-3.81.81-5.68,1.17-.91.16-1.71.33-2.43.42s-1.49.26-2.47.38c-1.82.29-3.7.56-5.65.78l-.19.03c-.59.06-1.17.13-1.79.22l-1.3.16c-.72.06-1.46.16-2.24.23-1.23.13-2.5.22-3.81.32l-.26.03c-3.58.26-6.98.42-10.16.49-1.52,1.33-3.05,2.85-4.48,4.35,6.39-.13,13.34-.65,20.64-1.49l1.36-.19h.02Z" fill="#002fa7"/>
  <path d="m56.43,64.52l-.65-.72c1.17-1.04,2.53-2.5,3.96-4.02l.81-.88.71.68-.81.85c-1.46,1.55-2.82,3-4.03,4.08Z" fill="#002fa7"/>
  <path d="m115.22,40.96l6.38,3.13-.43.87-6.38-3.13.43-.87Z" fill="#002fa7"/>
  <path d="m71.36,49.46l-.03.03c-.32.31-2.5,2.43-4,3.93l-.05.05-.52.52-.71-.49.06-.06.06-.07s3.19-3.43,3.96-3.86l1.17-.06h.05Z" fill="#002fa7"/>
  <path d="m71.75,49.46h-.44l-1.17.05h-1.19c-.38,0-.76-.02-1.11-.04h-1.26c-.05,0-.11,0-.16,0h-.26c-2.11-.11-4.21-.36-6.29-.76-.38-.08-.74-.16-1.1-.24l-.45-.19c-.43-.11-.85-.24-1.25-.38l-.1-.02h-.03c-.59-.18-1.18-.4-1.75-.65.63-.11,1.24-.19,1.84-.26l.09.91c.29-.03.55-.03.86-.06.76-.06,1.52-.07,2.29-.04,1.33.26,2.68.45,4.03.57.57.05,1.14.1,1.75.13s1.17.06,1.77.08h.03l.11-.02h.22v.04h.42c.53,0,1.05.03,1.56.03h.81l-.02-.03h.02c.13.23.26.45.38.68l.14.23.26-.02Z" fill="#002fa7"/>
  <path d="m115.55,40.02c-.03.23-.07.46-.11.69-.05.29-.11.59-.18.88l-.05.21v.06l-.26.09c-1.27.42-2.51.8-3.56,1.11-1.14.34-2.34.67-3.64,1h-.06c-.99.26-2.04.51-3.14.76-2.79.67-5.37,1.18-7.75,1.63-1,.19-2.04.38-3.26.59l-.66.12-.29.05-.82.14c-.47.07-.97.14-1.5.22-2.74.45-5.27.8-7.71,1.07-2.5.29-4.96.5-7.26.65l-.85.05c-.59.03-1.2.05-1.8.07h-1.2l-.14-.23c-.13-.23-.27-.45-.38-.67-.22-.38-.43-.79-.63-1.18-.08-.14-.14-.29-.21-.43s-.14-.29-.21-.45c-.16-.35-.31-.71-.44-1.06-.07-.18-.14-.36-.2-.54s-.13-.38-.19-.57l-.14-.4c-.17-.57-.34-1.14-.48-1.76-.04-.15-.07-.31-.11-.47,0-.03,0-.06,0-.08-.03-.16-.07-.32-.1-.5s-.05-.27-.08-.41l-.07-.43-.13-.86c0-.06,0-.12-.02-.18-.25-2.23-.18-4.49.22-6.7.57-3.28,1.82-6.4,3.67-9.17.29-.45.61-.88.93-1.3,1.13-1.45,2.4-2.78,3.81-3.96,2.64-2.16,5.71-3.73,9.01-4.62.51-.14,1.02-.26,1.52-.35l1.18-.2c8.38-1.22,16.78,2.08,22.08,8.68.14.17.28.34.4.51s.25.33.38.49.29.38.41.57c.4.59.79,1.21,1.14,1.83,1.1,1.98,1.91,4.1,2.42,6.3.06.2.12.38.17.59.07.26.13.53.17.79v.05c.05.29.09.57.13.86.03.21.06.42.08.64s.03.42.05.64.03.41.04.63.02.38.03.57v.05c.04,1.32-.04,2.64-.23,3.95h0Z" fill="#002fa7"/>
  <path d="m202.08,31.7h10.38v.83c.03,1.69-.2,3.38-.67,5.01-.46,1.4-1.21,2.68-2.2,3.77-2.23,2.58-5.49,4.02-8.89,3.93-3.41.04-6.68-1.34-9.03-3.81-2.45-2.42-3.81-5.73-3.75-9.17-.02-7.21,5.81-13.07,13.02-13.09.03,0,.07,0,.1,0,1.9-.01,3.78.4,5.5,1.21,1.84.97,3.47,2.3,4.8,3.9l-2.7,2.58c-2.06-2.74-4.57-4.11-7.53-4.11-2.51-.06-4.94.94-6.69,2.75-1.79,1.79-2.77,4.23-2.7,6.76-.07,2.63,1.02,5.16,3,6.91,1.88,1.68,3.91,2.52,6.1,2.52,1.85,0,3.64-.68,5.02-1.91,1.41-1.12,2.3-2.76,2.49-4.55h-6.25v-3.54Z" fill="#fff"/>
  <path d="m228.39,34.08l7.77,10.7h-4.63l-7.17-10.27h-.67v10.27h-3.81v-25.1h4.44c3.32,0,5.71.62,7.19,1.87,1.61,1.36,2.51,3.39,2.44,5.5.04,1.66-.5,3.27-1.52,4.57-1.01,1.27-2.43,2.15-4.03,2.47Zm-4.7-2.88h1.2c3.59,0,5.38-1.37,5.38-4.12,0-2.57-1.74-3.85-5.23-3.85h-1.35v7.97Z" fill="#fff"/>
  <path d="m258,38.68h-10.75l-2.8,6.1h-4.06l12.42-26.68,11.98,26.68h-4.13l-2.67-6.1Zm-1.52-3.56l-3.72-8.54-3.9,8.54h7.62Z" fill="#fff"/>
  <path d="m269.23,19.67l6.94,17.4,7.04-17.4h4.13l-11.27,26.99-11-26.99h4.15Z" fill="#fff"/>
  <path d="m297.6,19.67v25.1h-3.77v-25.1h3.77Z" fill="#fff"/>
  <path d="m315.88,23.23v21.54h-3.79v-21.54h-5.77v-3.56h15.33v3.56h-5.77Z" fill="#fff"/>
  <path d="m334.39,33.92l-8.19-14.26h4.36l5.74,10.03,5.76-10.03h4.38l-8.25,14.26v10.84h-3.79v-10.84Z" fill="#fff"/>
  <path d="m359.58,44.77v-25.1h3.77c1.35-.04,2.7.09,4.01.38.94.23,1.82.68,2.55,1.31.72.67,1.29,1.49,1.67,2.4.41.92.63,1.91.64,2.92.02,1.76-.74,3.43-2.07,4.57,1.29.42,2.4,1.26,3.15,2.39,1.86,2.81,1.48,6.53-.91,8.91-.78.8-1.75,1.4-2.81,1.74-1.4.34-2.84.5-4.28.47h-5.74Zm3.79-14.32h1.19c1.41,0,2.44-.31,3.1-.93s.98-1.52.98-2.76-.34-2.08-1.01-2.69-1.65-.92-2.92-.92h-1.33v7.3Zm0,10.76h2.34c1.71,0,2.97-.34,3.77-1.01.82-.68,1.29-1.7,1.27-2.76.02-1.05-.43-2.05-1.22-2.73-.79-.73-2.2-1.09-4.24-1.09h-1.91v7.59Z" fill="#fff"/>
  <path d="m391.1,34.08l7.77,10.7h-4.63l-7.17-10.27h-.68v10.27h-3.79v-25.1h4.44c3.32,0,5.71.62,7.18,1.87,1.62,1.36,2.52,3.39,2.44,5.5.04,1.66-.5,3.27-1.52,4.57-1.01,1.28-2.44,2.15-4.04,2.47Zm-4.71-2.88h1.21c3.59,0,5.38-1.37,5.38-4.12,0-2.57-1.75-3.85-5.24-3.85h-1.35v7.97Z" fill="#fff"/>
  <path d="m409.76,19.67v25.1h-3.79v-25.1h3.79Z" fill="#fff"/>
  <path d="m419.79,44.77v-25.1h5.27c2.53,0,4.52.25,5.98.76,1.59.5,3.05,1.35,4.28,2.49,2.59,2.36,3.88,5.47,3.88,9.32,0,3.85-1.35,6.97-4.05,9.37-1.23,1.12-2.68,1.97-4.26,2.49-1.39.47-3.36.7-5.9.7l-5.2-.02Zm3.79-3.56h1.71c1.43.04,2.86-.15,4.24-.54,1.13-.38,2.17-1,3.05-1.8,1.87-1.7,2.8-3.92,2.8-6.65s-.92-4.96-2.76-6.68c-1.66-1.52-4.1-2.29-7.33-2.29h-1.71v17.96Z" fill="#fff"/>
  <path d="m458.2,31.7h10.38v.83c.03,1.69-.2,3.38-.67,5.01-.46,1.4-1.21,2.68-2.2,3.77-2.23,2.58-5.49,4.02-8.89,3.93-3.41.04-6.68-1.34-9.03-3.81-2.45-2.42-3.81-5.73-3.75-9.17-.02-7.21,5.81-13.07,13.02-13.09.03,0,.07,0,.1,0,1.91-.01,3.79.4,5.52,1.21,1.84.97,3.47,2.3,4.8,3.9l-2.7,2.58c-2.06-2.74-4.57-4.11-7.53-4.11-2.51-.06-4.94.94-6.69,2.75-1.79,1.79-2.77,4.23-2.7,6.76-.07,2.64,1.03,5.17,3.01,6.91,1.88,1.68,3.91,2.52,6.1,2.52,1.85,0,3.64-.68,5.02-1.91,1.41-1.12,2.3-2.76,2.49-4.55h-6.26l-.02-3.54Z" fill="#fff"/>
  <path d="m489.19,23.23h-10.06v6.03h9.77v3.56h-9.77v8.39h10.06v3.56h-13.85v-25.1h13.85v3.56Z" fill="#fff"/>
</svg>